<svg viewBox="0 0 48 48" xml:space="preserve" xmlns="http://www.w3.org/2000/svg"><g fill="#05f4b7" class="fill-231f20"><path d="M32.606 20.272a39.406 39.406 0 0 1-8.2 3.487c-.682.173-1.152.083-1.377.008-3.321-1.388-5.635-2.497-7.683-3.667l-.037-.018c-1.267-.699-1.28 0-1.28 0v8.098a2 2 0 0 0 2 2H31.37a2 2 0 0 0 2-2v-7.908c0-.462-.764 0-.764 0z"></path><path d="M24 0C10.745 0 0 10.745 0 24c0 13.254 10.745 24 24 24s24-10.746 24-24C48 10.745 37.255 0 24 0zm13.21 31.424a2 2 0 0 1-2 2H12.79a2 2 0 0 1-2-2V16.576a2 2 0 0 1 2-2h22.42a2 2 0 0 1 2 2v14.848z"></path></g></svg>